<?xml version="1.0" encoding="utf-8"?>
<!-- Generator: Adobe Illustrator 24.0.1, SVG Export Plug-In . SVG Version: 6.00 Build 0)  -->
<svg version="1.1" id="Слой_1" xmlns="http://www.w3.org/2000/svg" xmlns:xlink="http://www.w3.org/1999/xlink" x="0px" y="0px"
	 viewBox="0 0 3000 3000" style="enable-background:new 0 0 3000 3000;" xml:space="preserve">
<path d="M1500,371.56C876.77,371.56,371.56,876.77,371.56,1500S876.77,2628.44,1500,2628.44S2628.44,2123.23,2628.44,1500
	S2123.23,371.56,1500,371.56z M2427.51,906c26.09,40.75,49.55,83.27,70.19,127.43c-2.56,2.16-4.98,3.97-7.18,5.34
	c0,0-3.09,1.77-5.88,2.72c-7.31,2.5-24.68-6.3-37.29-24.17c-9.58-13.58-7.04-19.13-14.62-23.22c-10.19-5.51-17.7,2.93-31.12-2.07
	c-7.47-2.78-16.04-9.45-18.77-18.58c-4.07-13.6,6.47-27.14,17.54-41.36C2410.24,919.43,2420.52,911.02,2427.51,906z M1968.83,585.37
	c-0.58-11.95,3.13-24.36,7.84-38.12c4.29-12.53,9.61-24.23,14.05-33.12c161.43,80.22,300.28,199.02,404.49,344.33
	c-7.29,15.73-28.33,18.05-53.26,28.19c-42.24,17.19-67.61-34.93-102.61-24.25c-21.61,6.59-16.41,22.99-57.77,49.97
	c-18.35,11.97-34.03,21.9-52.47,18.92c-13.98-2.26-14.62-9.53-39.9-22.68c-28.84-15-34.22-45.89-27.19-80.55
	c2.28-11.26,8.94-44.12-7.74-68.81c-10.85-16.06-19.53-10.85-31.55-25.85c-21.94-27.38,1.32-51.79-16.62-90.28
	C1992.03,612.98,1970.09,611.54,1968.83,585.37z M2265.44,1176.28c-15.91,16.16-36.05,2.71-56.05,15.21
	c-18.66,11.66-9.81,28.81-29.56,58.08c-21.09,31.26-59.18,53.19-74.34,43.77c-2.23-1.39-3.88-3.4-7.95-14.03
	c-7.15-18.67-11.04-35.9-13.19-50.39c-1.38-5.77-5.58-26.4,5.92-46.45c2.51-4.38,8.32-14.5,20.01-20.56
	c16.42-8.51,24.61,1.24,42.28-4.8c19.53-6.68,16.53-20.98,37.32-29.53c16.5-6.79,32.26-3.5,44.13-1.02
	c14.39,3.01,36.11,7.54,40.43,22.36C2277.23,1158.45,2272.06,1169.56,2265.44,1176.28z M714.34,1922.21
	c-39.36-20.12-38.78-46.61-75.09-65.61c-29.94-15.67-50.48-8.21-76.81-12.18c-36.59-5.51-85.69-33.3-136.94-134.88
	c-13.45-68.52-20.48-139.39-20.48-211.88c0-221.61,65.7-427.9,178.65-600.44c13.47-1.53,29.95-1.75,30.38,6.62
	c0.74,14.24-24.67,50.89,18.73,77.83c43.38,26.92,44.89,50.12,44.12,68.09c-0.74,17.94,19.48,38.91,47.17,52.38
	c15.07,7.33,13.4,10.04,15.43,13.2c13.09,20.37-3.27,51.94-16.68,78.74c-39.79,79.53-59.76,120-63.84,154.22
	c-1.82,15.33-5.4,48.68,9.56,84.85c2.19,5.31,6.65,15.18,39.07,56.58c36.15,46.17,54.55,69.37,69.91,75.11
	c35.87,13.4,74.46-3,90.93-10c35.06-14.9,36.5-30.28,71.17-40.8c37.29-11.32,45.7,3.41,64.28-9.32
	c23.33-15.97,16.07-43.28,44.93-99.54c3.85-7.51,11.16-21.03,24.14-35.42c9.57-10.62,17.87-16.88,20.72-19.19
	c31.26-25.36,58.83-104.43,32.84-132.75c-16.74-18.23-43.8-2.47-74.33-27.33c-12.4-10.1-19.52-22.12-23.59-30.74
	c-3.69-17.33-11.58-41.68-30.69-62.85c-41.28-45.73-88.67-25.42-145.75-69.28c-48.58-37.33-63.61-89.97-66.75-102.07
	c-11.16-42.97-9.85-82.13,0-95.03c29.16-38.16,53.87-90.56,53.12-115.97c-0.57-18.31,8.98-74.5,20.77-106.31
	c128.37-93.06,277.67-158.96,439.49-189.32c17.17,3.31,33.58,8.32,47.06,15.77c18.19,10.06,77.34,31.46,124.96,76.32
	c60.22,56.74,35.47,82.91,92.61,134.32c49.12,44.19,78.68,34.99,98.2,74.45c18.47,37.34,12.26,86.52-9.58,119.2
	c-16.19,24.22-28.42,20.62-74.94,55.14c-65.83,48.85-60.7,70.42-99.02,84.36c-42.53,15.46-94.89,5.63-131.48-21.5
	c-46.75-34.66-56.9-89.51-59.85-105.48c-5.06-27.35-5.69-68.38-6-88.31c-0.59-38.06,1.79-45.51-5.24-57.61
	c-16.51-28.43-61.24-41.63-95.01-30.71c-14.85,4.8-24.68,13.33-33.92,21.35c-4.09,3.55-19.21,17.1-38.66,53.48
	c-16.41,30.69-24.61,46.03-26.99,67.96c-1.21,11.15-5.1,47.05,16.5,71.01c11.19,12.41,24.69,16.59,31.4,18.93
	c58.94,20.54,105.89,76.94,129.94,105.83c31.21,37.49,16.54,39.2,64.61,124.63c52.29,92.91,69.55,90.73,74.21,128.96
	c5.15,42.31-15.07,82.25-55.5,162.14c-20.68,40.87-26.95,44.54-51.62,94.74c-34.87,70.94-26.78,72.63-45.62,100.56
	c-38.67,57.35-94.33,88.54-130.21,100.99c-36.67,12.73-83.05,20.22-113.02,39.67c-29.9,19.43-68.09,85.28-121.21,111.48
	c-53.12,26.2-57.61,49.38-95.01,59.1C750.81,1944.69,720.11,1925.16,714.34,1922.21z M930.94,1296.54
	c15.92-17.22,33.13-6.69,49.33-25.91c12.85-15.25,8.7-29.79,21.8-35.67c9.59-4.31,14.39,3.41,31.43-0.41
	c11.98-2.69,16.03-7.78,21.91-5.2c6.17,2.7,10.29,12.07,8.86,19.95c-2.66,14.7-22.58,12.76-29.84,28.59
	c-8.16,17.8,12.26,31.67,2.64,46.23c-5.54,8.38-23.77,21.56-28.64,29.44c-0.69,1.11-3.6,5.88-8.45,11.7
	c-1.25,1.5-2.64,3.04-4.28,4.72c-7.15,7.29-15.62,10.66-18.63,11.86c-6.25,2.49-14.5,5.78-23.88,4.37
	c-15.79-2.37-24.99-16.59-27.08-19.81C912.93,1346.03,914.79,1314.01,930.94,1296.54z M976.49,2231.58
	c14.84-14,43.97-18.74,58.62-3.9c8.55,8.66,9.05,20.82,9.2,24.6c0.22,5.33-0.26,18.59-10,29.16c-10.94,11.87-30.88,17.45-39.44,10.4
	c-7.31-6.02-0.98-16.85-9.97-26.01c-7.31-7.45-15.78-4.66-18.64-10.84C963.04,2248.03,970.46,2237.27,976.49,2231.58z
	 M922.58,2234.99c-12.73,0.48-15.69,1.01-19.54,1.01c-3.86,0-8.3,0-11.26-5.37c-2.96-5.3,8.02-5.61,8.02-5.61s14.22-6.81,21.88-6.81
	c7.71,0,10.98,2.1,15.73,6.81C942.12,2229.78,935.31,2234.49,922.58,2234.99z M915.22,2407.4c-3.31,0.5-8.39,3.64-14.37,8.39
	c-29.73-19.5-58.49-40.42-86.12-62.7c0,0-10.14-29.9,22.21-32.49c32.29-2.56,18.25-15.31,33.17-16.15
	c14.9-0.85,100.84,37.85,88.07,57.44C945.43,2381.46,932.24,2404.86,915.22,2407.4z M2007.23,2472.81h-0.04
	c-3.77-2.78-6.97-6.33-8.08-10.82c-3.92-15.58,20.7-25.54,20.02-45.37c-0.7-19.52-23.88-84.54-33.39-114.77
	c-7.51-23.97-23.81-84.08-29.35-116.11c-5.83-33.76-31.17-63.25-42.7-60.05c-11.92,3.31,2.06,38.42-20.04,70.72
	c-20.09,29.44-45.06,19.94-62.7,48.04c-8.92,14.22-3.44,18.12-10.67,84.08c-5.5,50.01-40.42,82.5-61.38,98.76
	c-33.96,26.31-99,95.12-118.78,121.43c-12.09,16.15-12.82,28.83-15.95,39.98h-0.04c-39.87,4.43-80.38,6.66-121.41,6.66
	c-200.01,0-387.53-53.47-549.03-146.95c6.65-11.22,17.37-27.01,33.62-42.83c31.12-30.3,52.74-31.68,75.39-50.26
	c28.43-23.32,16.08-38.94,49.95-118.66c16.95-39.91,50.61-107.93,53.53-145.95c0.31-4.04,2.55-33.17-9-42.26
	c-1.34-1.05-5.04-4.07-7.66-9.18c-1.35-2.63-1.98-6.34-1.18-12.98c0.08-0.71,0.77-5.21,3.19-9.85
	c5.64-10.83,17.69-16.49,23.43-21.23c12.45-10.28,4.83-24.19,11.45-52.45c0.49-2.07,12.82-52.1,47.39-73.28
	c6.33-3.88,13.16-6.64,25.52-15.3c10.84-7.59,14.12-11.45,23.99-16.44c4.37-2.21,11.69-5.96,21.91-7.74
	c39.32-6.83,46.14,14.79,60.4,9.11c24.19-9.62,29.98-41.62,61.47-46.68c11.33-1.82,11.89,3.36,36.24,2.62
	c16.92-0.52,22.2-3.19,30.38,0.78c13.21,6.41,17.32,22.26,18.55,26.15c2.08,6.52,2.11,14.74-1.47,26.82
	c-9.11,30.74-34.74,59.24-27.91,85.39c6.81,26.2,2.3,43.29-5.13,74.04c-3.53,14.65-2.15,23.09,1.38,28.6
	c4.46,6.95,11.27,9.94,15.71,11.84c13.58,5.81,36.89,16.72,48.31,24.29c24.74,16.4,44.4,50.71,55.9,70.79
	c0.81,1.41,3.56,6.31,9.14,9.78c2.48,1.54,8.57,4.71,15.82,3.44c0,0,4.94-0.87,9.16-4.13c12.85-9.91,1.99-51.21,4.58-92.44
	c1.17-18.66,4.76-31.95,8.59-46.13c15.56-57.62,37.95-65.04,49.8-118.7c8.17-36.96,1.97-53.44,0.27-57.59
	c-6.26-15.35-14.25-17.72-17.91-33.67c-3.04-13.22-0.09-24.71,5.81-47.69c7.27-28.33,13.45-32.72,10.94-47.34
	c-1.36-7.92-4.26-12.96-3.18-22.91c0.85-7.85,3.27-10.31,7.41-21.47c6.98-18.8,3.56-21.04,8.87-31.95
	c4.2-8.62,10.25-14.19,22.2-24.98c13.43-12.13,16.7-12.92,30.25-24.08c13.55-11.16,21.24-19.41,47.21-41.39
	c7.42-6.28,14.24-11.89,23.77-12.12c5.62-0.14,10.62,2.24,20.61,7c10.97,5.22,19.14,9.12,27.54,17.37
	c4.49,4.41,10.38,10.21,13.86,19.06c7.38,18.77-4.99,28.69-0.96,58.65c1.33,9.85,3.69,16.41,4.66,18.92
	c5.28,13.74,13.12,22.37,15.85,25.48c2.77,3.16,29.79,35,42.13,72.31c6.64,20.09,3.75,25.84,12.63,40.38
	c7.03,11.51,12.97,14.65,17.05,27.7c2.07,6.6,2.6,12.35,7.24,20.2c3.97,6.72,8.27,11,10.35,12.52
	c23.33,17.07,37.59,59.21,54.09,54.09c10.37-3.22,17.59-7.1,20.12-13.36c2.17-5.37,0.38-10.72-0.76-13.98
	c-7.38-21.18-23.71-47.61-29.62-56.94c-2.03-7.8-4.2-19.4-3.61-33.44c0.22-5.29,1.16-18.3,7.95-37.09
	c12.81-35.42,37.07-65.39,48.03-78.08c14.08-20.88,17.61-38.15,18.23-50.08c0.69-13.45-2.3-20.59,1.68-32.62
	c5.44-16.44,17.24-21.9,25.09-30.6c20.58-22.8,2.3-54.82-2.1-127.41c-3.03-50.08-4.55-75.12,9.5-98.63
	c13.75-23,29.14-25.15,65.14-59.32c22.51-21.37,38.38-41.3,48.14-54.57c42.55-25.56,70-19.73,80.29-16.5
	c24.36,7.67,65.65,28.43,82,97.92c6.83,29.05,11.96,47.84,31.33,54.09c26.88,8.67,19.95,42.99,27.89,62.08
	c9.92,23.86,24.53,57.49,44.43,98.49c-1.32,44.04-8.99,77.75-15.95,100.77c-10.67,35.29-24.35,59.63-11.96,82.02
	c11.96,21.62,29.6,30.17,19.34,67.76c-7.23,26.57-13.63,36.12-11.5,43.94c1.47,5.43,5.54,8.15,7.54,9.92
	c6.88,6.13,14.85,17.22,22.19,38.6C2447.75,2124.06,2255.13,2344.29,2007.23,2472.81z"/>
</svg>
